<?xml version="1.0" encoding="utf-8"?>
<!-- Generator: Adobe Illustrator 19.0.0, SVG Export Plug-In . SVG Version: 6.00 Build 0)  -->
<svg version="1.1" id="Layer_1" xmlns="http://www.w3.org/2000/svg" xmlns:xlink="http://www.w3.org/1999/xlink" x="0px" y="0px"
	 viewBox="-39 144.4 62.4 32.6" style="enable-background:new -39 144.4 62.4 32.6;" xml:space="preserve">
<style type="text/css">
	.st0{fill:#FFBDE1;}
	.st1{fill:#FFFFFF;}
</style>
<g id="XMLID_323_">
	<path id="XMLID_40_" class="st0" d="M21.2,153.1c-1.7-2.2-4.1-3.4-6.9-3.5c-1,0-2,0.1-3,0.4c-0.4-0.1-0.8-0.2-1.2-0.2H6.3l0,0
		c-0.2,0-0.4,0-0.6,0.1v-1c0-1.4-0.7-2.8-1.8-3.6c-1.1-0.8-2.6-1.1-4-0.7l-4.4,1.3c-1.9,0.6-3.2,2.3-3.2,4.3v0.1
		c-1-0.3-2.2-0.5-3.5-0.5c-1.4,0-2.7,0.2-4,0.7v-1.4c0-1.2-0.5-2.4-1.4-3.2s-2-1.3-3.2-1.3l-4.7,0.1c-0.9,0-1.8,0.3-2.5,0.8
		c-0.7-0.5-1.7-0.9-2.6-0.9h-4.9c-2.5-0.1-4.5,2-4.5,4.4v17.8c0,2.5,2,4.6,4.5,4.6h4.7c0.9,0,1.8-0.3,2.5-0.8c0.8,0.6,1.7,0.9,2.7,1
		h4.7l0,0c1.2,0,2.3-0.5,3.2-1.3c0,0,0-0.1,0.1-0.1c1.3,0.8,2.8,1.2,4.3,1.4c0.3,0,0.6,0,0.9,0c1.4,0,2.9-0.3,4.2-0.8
		c0.8-0.3,1.6-0.8,2.3-1.3c1.6,1.4,3.7,2.2,6.1,2.2c0.1,0,0.2,0,0.4,0v0.9c0,2.5,2,4.5,4.5,4.5h4.7c1.2,0,2.4-0.5,3.2-1.4
		c0.8-0.9,1.3-2.1,1.3-3.3v-1.3c1.3-0.2,2.6-0.8,3.7-1.6c1.5-1.1,2.6-2.5,3.4-4.2c0.7-1.6,1.1-3.3,1.1-5.1
		C23.4,157.3,22.6,155,21.2,153.1z"/>
	<path id="XMLID_13_" class="st1" d="M-24.5,160.4l-5.3-0.6v7h-4.7V149h4.7v6.1l5.2,0.5V149l4.7-0.1l0.1,18h-4.7V160.4z M-6.9,156
		c1.1,1.1,1.6,2.7,1.6,4.7c0,0.3,0,0.6,0,0.8l-8.3,0.1c0.2,0.5,0.5,0.9,0.8,1.3s0.7,0.5,1.2,0.6c1.3,0.1,2.2-0.3,2.7-1.1l3.4,1
		c-0.2,0.7-0.6,1.4-1.2,2c-0.6,0.6-1.3,1-2.1,1.4c-0.8,0.3-1.6,0.5-2.5,0.5c-0.2,0-0.4,0-0.5,0c-1.1-0.1-2.1-0.4-3-1.1
		c-0.9-0.6-1.6-1.4-2.2-2.5c-0.5-1-0.8-2.1-0.8-3.3c0-0.2,0-0.4,0-0.5c0.1-1,0.4-2,1-2.8s1.3-1.4,2.3-1.9c0.9-0.5,2-0.7,3.1-0.7
		C-9.5,154.3-8,154.8-6.9,156z M-13.6,158.6h4c-0.1-0.5-0.2-0.8-0.6-1.1c-0.3-0.3-0.7-0.4-1-0.4C-12.4,157.1-13.2,157.6-13.6,158.6z
		 M1.3,167.1c-1.4,0-2.6-0.5-3.5-1.4c-0.9-0.9-1.3-2.2-1.3-3.9v-11.6l4.5-1.3v11.6c0,0.6,0.2,1.1,0.5,1.4s0.7,0.5,1.2,0.5
		c0.3,0,0.6-0.1,0.8-0.2l1,4.2C3.4,166.8,2.3,167.1,1.3,167.1z M17.6,155.8c0.9,1.1,1.3,2.5,1.3,4.2c0,1.2-0.2,2.3-0.7,3.3
		c-0.4,1-1.1,1.8-1.9,2.4c-0.8,0.6-1.8,0.9-2.8,0.9c-1.2,0-2.1-0.2-2.9-0.6l0.2,6.5H6.1v-18.2h3.8l0.2,1.2c0.5-0.5,1.2-0.8,1.9-1.1
		s1.4-0.4,2-0.4C15.6,154.2,16.7,154.7,17.6,155.8z M14.5,162.2c0.4-0.4,0.6-1,0.6-1.7c0-0.7-0.2-1.3-0.6-1.8
		c-0.4-0.4-1-0.7-1.7-0.7s-1.2,0.2-1.7,0.6c-0.4,0.4-0.7,1-0.7,1.6c0,0.7,0.3,1.3,0.8,1.8s1.1,0.7,1.8,0.7
		C13.7,162.8,14.2,162.6,14.5,162.2z"/>
</g>
</svg>
