<?xml version="1.0" encoding="utf-8"?>
<!-- Generator: Adobe Illustrator 19.0.0, SVG Export Plug-In . SVG Version: 6.00 Build 0)  -->
<svg version="1.1" id="Layer_1" xmlns="http://www.w3.org/2000/svg" xmlns:xlink="http://www.w3.org/1999/xlink" x="0px" y="0px"
	 viewBox="0 0 62.4 32.6" style="enable-background:new 0 0 62.4 32.6;" xml:space="preserve">
<style type="text/css">
	.st0{fill:#BB5599;}
	.st1{fill:#FFFFFF;}
</style>
<g id="XMLID_323_">
	<path id="XMLID_40_" class="st0" d="M60.2,8.7c-1.7-2.2-4.1-3.4-6.9-3.5c-1,0-2,0.1-3,0.4c-0.4-0.1-0.8-0.2-1.2-0.2l-3.8,0
		c0,0,0,0,0,0c-0.2,0-0.4,0-0.6,0.1l0-1c0-1.4-0.7-2.8-1.8-3.6c-1.1-0.8-2.6-1.1-4-0.7l-4.4,1.3c-1.9,0.6-3.2,2.3-3.2,4.3l0,0.1
		c-1-0.3-2.2-0.5-3.5-0.5c-1.4,0-2.7,0.2-4,0.7l0-1.4c0-1.2-0.5-2.4-1.4-3.2c-0.9-0.8-2-1.3-3.2-1.3l-4.7,0.1
		c-0.9,0-1.8,0.3-2.5,0.8c-0.7-0.5-1.7-0.9-2.6-0.9H4.5C2,0.1,0,2.2,0,4.6v17.8C0,24.9,2,27,4.5,27h4.7c0.9,0,1.8-0.3,2.5-0.8
		c0.8,0.6,1.7,0.9,2.7,1l4.7,0c0,0,0,0,0,0c1.2,0,2.3-0.5,3.2-1.3c0,0,0-0.1,0.1-0.1c1.3,0.8,2.8,1.2,4.3,1.4c0.3,0,0.6,0,0.9,0
		c1.4,0,2.9-0.3,4.2-0.8c0.8-0.3,1.6-0.8,2.3-1.3c1.6,1.4,3.7,2.2,6.1,2.2c0.1,0,0.2,0,0.4,0v0.9c0,2.5,2,4.5,4.5,4.5h4.7
		c1.2,0,2.4-0.5,3.2-1.4c0.8-0.9,1.3-2.1,1.3-3.3l0-1.3c1.3-0.2,2.6-0.8,3.7-1.6c1.5-1.1,2.6-2.5,3.4-4.2c0.7-1.6,1.1-3.3,1.1-5.1
		C62.4,12.9,61.6,10.6,60.2,8.7z"/>
	<path id="XMLID_13_" class="st1" d="M14.5,16l-5.3-0.6v7H4.5V4.6h4.7v6.1l5.2,0.5l0-6.6l4.7-0.1l0.1,18l-4.7,0L14.5,16z M32.1,11.6
		c1.1,1.1,1.6,2.7,1.6,4.7c0,0.3,0,0.6,0,0.8l-8.3,0.1c0.2,0.5,0.5,0.9,0.8,1.3s0.7,0.5,1.2,0.6c1.3,0.1,2.2-0.3,2.7-1.1l3.4,1
		c-0.2,0.7-0.6,1.4-1.2,2c-0.6,0.6-1.3,1-2.1,1.4c-0.8,0.3-1.6,0.5-2.5,0.5c-0.2,0-0.4,0-0.5,0c-1.1-0.1-2.1-0.4-3-1.1
		c-0.9-0.6-1.6-1.4-2.2-2.5c-0.5-1-0.8-2.1-0.8-3.3c0-0.2,0-0.4,0-0.5c0.1-1,0.4-2,1-2.8c0.6-0.8,1.3-1.4,2.3-1.9
		c0.9-0.5,2-0.7,3.1-0.7C29.5,9.9,31,10.4,32.1,11.6z M25.4,14.2l4,0c-0.1-0.5-0.2-0.8-0.6-1.1c-0.3-0.3-0.7-0.4-1-0.4
		C26.6,12.7,25.8,13.2,25.4,14.2z M40.3,22.7c-1.4,0-2.6-0.5-3.5-1.4c-0.9-0.9-1.3-2.2-1.3-3.9l0-11.6L40,4.5l0,11.6
		c0,0.6,0.2,1.1,0.5,1.4c0.3,0.3,0.7,0.5,1.2,0.5c0.3,0,0.6-0.1,0.8-0.2l1,4.2C42.4,22.4,41.3,22.7,40.3,22.7z M56.6,11.4
		c0.9,1.1,1.3,2.5,1.3,4.2c0,1.2-0.2,2.3-0.7,3.3c-0.4,1-1.1,1.8-1.9,2.4c-0.8,0.6-1.8,0.9-2.8,0.9c-1.2,0-2.1-0.2-2.9-0.6l0.2,6.5
		h-4.7V9.9l3.8,0l0.2,1.2c0.5-0.5,1.2-0.8,1.9-1.1c0.7-0.3,1.4-0.4,2-0.4C54.6,9.8,55.7,10.3,56.6,11.4z M53.5,17.8
		c0.4-0.4,0.6-1,0.6-1.7c0-0.7-0.2-1.3-0.6-1.8c-0.4-0.4-1-0.7-1.7-0.7c-0.7,0-1.2,0.2-1.7,0.6c-0.4,0.4-0.7,1-0.7,1.6
		c0,0.7,0.3,1.3,0.8,1.8c0.5,0.5,1.1,0.7,1.8,0.7C52.7,18.4,53.2,18.2,53.5,17.8z"/>
</g>
</svg>
