<?xml version="1.0" encoding="utf-8"?>
<!-- Generator: Adobe Illustrator 19.0.0, SVG Export Plug-In . SVG Version: 6.00 Build 0)  -->
<svg version="1.1" id="Layer_1" xmlns="http://www.w3.org/2000/svg" xmlns:xlink="http://www.w3.org/1999/xlink" x="0px" y="0px"
	 viewBox="0 146.9 142.3 28.1" style="enable-background:new 0 146.9 142.3 28.1;" xml:space="preserve">
<style type="text/css">
	.st0{fill:#FFBDE1;}
	.st1{fill:#FFFFFF;}
</style>
<g id="XMLID_91_">
	<path id="XMLID_22_" class="st0" d="M61.3,147.3l-4.7-0.4c-1.3-0.1-2.5,0.3-3.4,1.2c-0.9,0.9-1.4,2.1-1.4,3.3v1.6
		c-1.4,0.1-2.8,0.6-4,1.4c-0.8-0.7-1.8-1.1-2.9-1.1H41c-0.3,0-0.6,0-0.9,0.1c-0.7-0.2-1.4-0.2-2.1-0.2c-1.9,0-3.8,0.5-5.4,1.5
		c-0.5,0.3-0.9,0.6-1.4,1c-0.6-0.5-1.3-1-2-1.3l0,0c-1.6-0.8-3.5-1.3-5.6-1.3c-1.7,0-3.4,0.4-5,1.2c-1.7,0.8-3.1,2-4.2,3.6
		c-0.2,0.3-0.4,0.7-0.6,1v-6.4c0-2.5-2-4.5-4.5-4.5H4.5C2,148,0,150,0,152.5v17.9c0,2.5,2,4.5,4.5,4.5h11c1.2,0,2.2-0.5,3-1.2
		c1.6,0.8,3.3,1.2,5.1,1.2c2,0,3.9-0.5,5.6-1.5c0.6-0.3,1.1-0.7,1.6-1.2c0.4,0.4,0.9,0.7,1.3,1c1.6,1.1,3.4,1.6,5.3,1.6
		c0.8,0,1.5-0.1,2.3-0.3c0.4,0.1,0.8,0.2,1.2,0.2h4.3c1,0,1.9-0.3,2.7-0.9c1.3,0.7,2.7,1.1,4.2,1.1c0.9,0,1.8-0.1,2.7-0.3
		c0.4,0.1,0.9,0.2,1.4,0.2h4.6c2.5,0,4.5-2,4.5-4.5v-18.5C65.4,149.4,63.6,147.5,61.3,147.3z M139.4,156.3c-1.3-1.4-3.8-3.1-7.8-3.1
		c-1.8,0-3.5,0.4-5.1,1.1c-0.6,0.3-1.1,0.6-1.6,1c-1.5-1.4-3.4-2.2-5.7-2.2c-1.5,0-2.7,0.2-3.8,0.5c-0.1,0-0.3,0.1-0.4,0.1
		c-0.9-0.3-1.9-0.5-3.2-0.5c-0.8,0-1.5,0.1-2.2,0.2c-0.4-0.1-0.9-0.2-1.4-0.2l-4,0.1c-0.4,0-0.7,0.1-1,0.2c-0.5-0.2-1-0.3-1.5-0.3
		h-3.9c-0.3,0-0.6,0-0.9,0.1c-0.7-0.2-1.4-0.2-2.1-0.2c-1.9,0-3.8,0.5-5.4,1.5c-0.1,0-0.1,0.1-0.2,0.1c0.2-1.3-0.3-2.8-1.4-3.8
		s-2.5-1.8-4.2-2.3c-2.3-0.7-4.8-0.9-7.2-0.4h-0.1c-2.1,0.5-3.9,1.4-5.5,2.7s-2.8,2.9-3.7,4.8c-0.9,1.8-1.3,3.8-1.3,5.8
		c0,0.9,0.1,1.8,0.3,2.7c0.4,2.1,1.3,3.9,2.7,5.6c1.3,1.6,2.9,2.9,4.7,3.8c1.9,0.9,3.9,1.4,5.9,1.4c0.9,0,1.7-0.1,2.6-0.3
		c1.9-0.4,3.6-1.2,5.1-2.4c0.1-0.1,0.2-0.2,0.3-0.3c0.5,0.5,1.1,1.1,1.8,1.5c1.6,1.1,3.4,1.6,5.3,1.6c0.8,0,1.6-0.1,2.3-0.3
		c0.4,0.1,0.8,0.2,1.2,0.2h4.3c0.4,0,0.7-0.1,1.1-0.1c0.4,0.1,0.7,0.2,1.1,0.2h4.4c0.5,0,1-0.1,1.5-0.3c0.5,0.2,0.9,0.2,1.4,0.2h4.4
		c0.4,0,0.8-0.1,1.2-0.2c0.5,0.2,1,0.2,1.5,0.2h4.6c1.1,0,2.2-0.4,3-1.2c1.3,0.7,2.8,1.2,4.3,1.3c0.3,0,0.6,0,0.9,0
		c1.4,0,2.9-0.3,4.2-0.8c1.4-0.6,2.6-1.4,3.6-2.4c1.1-1.1,1.9-2.5,2.3-3.9c0.1-0.5,0.2-1,0.2-1.5c0.1-0.4,0.2-0.7,0.2-1.1
		c0-0.3,0-0.6,0-1.1C142.3,161,141.3,158.3,139.4,156.3z"/>
	<path id="XMLID_13_" class="st1" d="M15.5,165.7v4.7h-11v-17.9h4.7v13.2H15.5z M20.3,169.5c-1-0.6-1.8-1.4-2.4-2.5
		c-0.6-1-0.9-2.1-0.9-3.3c0-1.3,0.3-2.4,1-3.3s1.5-1.7,2.5-2.1c1-0.5,2-0.7,3.1-0.7c1.3,0,2.5,0.3,3.5,0.8s1.8,1.2,2.3,2.2
		c0.5,0.9,0.8,2,0.8,3.3c0,1.2-0.3,2.4-0.9,3.4s-1.4,1.8-2.4,2.4c-1,0.6-2.1,0.9-3.3,0.9C22.4,170.4,21.3,170.1,20.3,169.5z
		 M25.4,165.8c0.4-0.4,0.6-1,0.6-1.7s-0.2-1.3-0.6-1.8s-1-0.7-1.8-0.7c-0.7,0-1.3,0.2-1.8,0.7s-0.7,1-0.7,1.7c0,0.7,0.2,1.3,0.7,1.8
		s1.1,0.7,1.9,0.7C24.4,166.4,25,166.2,25.4,165.8z M41,170.3v-1.1c-0.4,0.4-0.9,0.7-1.6,0.9c-0.6,0.2-1.3,0.3-1.9,0.3
		c-1,0-2-0.3-2.9-0.9c-0.9-0.6-1.6-1.3-2.1-2.3s-0.8-2-0.8-3.2c0-1.2,0.3-2.2,0.8-3.2s1.3-1.7,2.2-2.3c0.9-0.6,2-0.8,3.1-0.8
		c0.6,0,1.2,0.1,1.7,0.3c0.5,0.2,1,0.5,1.3,0.8v-1h3.9l0.5,12.5C45.2,170.3,41,170.3,41,170.3z M39.5,166.2c0.4-0.3,0.7-0.6,0.9-1
		c0.2-0.4,0.3-0.9,0.3-1.3c0-0.6-0.2-1.2-0.6-1.6c-0.4-0.4-0.9-0.6-1.6-0.6c-0.7,0-1.3,0.2-1.8,0.7s-0.8,1.1-0.8,1.7
		c0,0.4,0.1,0.8,0.3,1.2c0.2,0.4,0.5,0.7,0.9,0.9s0.7,0.4,1.1,0.4C38.7,166.6,39.1,166.4,39.5,166.2z M60.9,151.8v18.6h-4.6v-1.3
		c-0.5,0.4-1.1,0.8-1.8,1c-0.7,0.3-1.5,0.4-2.2,0.4c-0.9,0-1.8-0.3-2.6-0.9c-0.8-0.6-1.4-1.4-1.9-2.4s-0.7-2.1-0.7-3.2
		c0-1.1,0.2-2.1,0.7-3.1s1.1-1.8,1.9-2.4c0.8-0.6,1.6-0.9,2.5-1c1.6,0,3,0.3,4.1,1.1v-7.3L60.9,151.8z M55,166.1
		c0.4-0.2,0.7-0.6,1-1c0.3-0.4,0.4-0.8,0.4-1.2c0-0.7-0.3-1.2-0.8-1.7s-1.1-0.7-1.8-0.7c-0.6,0-1.2,0.2-1.7,0.7s-0.7,1.1-0.7,1.8
		c0,0.4,0.1,0.8,0.3,1.2c0.2,0.4,0.5,0.7,0.9,1c0.4,0.2,0.8,0.4,1.2,0.4C54.2,166.5,54.6,166.4,55,166.1z M87.3,162.5
		c0,1.1-0.3,2.3-0.8,3.4s-1.3,2-2.2,2.8c-1,0.8-2,1.3-3.2,1.5c-0.6,0.1-1.2,0.2-1.7,0.2c-1.4,0-2.7-0.3-3.9-0.9
		c-1.4-0.6-2.5-1.5-3.4-2.6s-1.5-2.3-1.8-3.7c-0.1-0.5-0.2-1.1-0.2-1.7c0-1.3,0.3-2.6,0.9-3.9s1.4-2.3,2.5-3.2s2.3-1.5,3.6-1.8
		c0.7-0.1,1.3-0.2,2-0.2c1.1,0,2.1,0.2,3.1,0.5s1.8,0.7,2.5,1.3l-2.5,3.9c-0.3-0.3-0.8-0.6-1.4-0.8c-0.6-0.2-1.1-0.3-1.7-0.3
		c-0.3,0-0.7,0-1.1,0.1c-0.9,0.2-1.6,0.7-2.1,1.4c-0.6,0.8-0.8,1.6-0.8,2.5c0,0.3,0,0.5,0.1,0.8c0.2,1,0.7,1.8,1.4,2.4
		c0.7,0.6,1.5,1,2.4,1c0.2,0,0.4,0,0.7-0.1c0.5-0.1,1-0.3,1.5-0.6c0.5-0.3,0.8-0.7,0.9-1.1l-4.1-0.7l1-4.2l7.8,1.6
		C87.1,160.8,87.3,161.6,87.3,162.5z M98,170.3v-1.1c-0.4,0.4-0.9,0.7-1.6,0.9c-0.6,0.2-1.3,0.3-1.9,0.3c-1,0-2-0.3-2.9-0.9
		c-0.9-0.6-1.6-1.3-2.1-2.3s-0.8-2-0.8-3.2c0-1.2,0.3-2.2,0.8-3.2s1.3-1.7,2.2-2.3c0.9-0.6,2-0.8,3.1-0.8c0.6,0,1.2,0.1,1.7,0.3
		c0.5,0.2,1,0.5,1.3,0.8v-1h3.9l0.5,12.5C102.2,170.3,98,170.3,98,170.3z M96.4,166.2c0.4-0.3,0.7-0.6,0.9-1
		c0.2-0.4,0.3-0.9,0.3-1.3c0-0.6-0.2-1.2-0.6-1.6c-0.4-0.4-0.9-0.6-1.6-0.6s-1.3,0.2-1.8,0.7s-0.8,1.1-0.8,1.7
		c0,0.4,0.1,0.8,0.3,1.2c0.2,0.4,0.5,0.7,0.9,0.9s0.7,0.4,1.1,0.4C95.7,166.6,96.1,166.4,96.4,166.2z M123.5,170.3h-4.6v-6.5
		c0-0.9-0.1-1.5-0.3-1.8c-0.2-0.3-0.6-0.5-1.1-0.5c-0.4,0-0.7,0.2-1,0.7c-0.2,0.5-0.4,1.1-0.4,1.8v0.4v-0.1v5.8h-4.4v-6.5
		c0-0.7-0.1-1.3-0.4-1.7c-0.3-0.4-0.6-0.6-1.1-0.6s-0.9,0.2-1.2,0.6c-0.3,0.4-0.4,1-0.4,1.8v0.5l0,0l0.2,5.9h-4.4V158l4-0.1v0.9
		c0.4-0.3,0.9-0.6,1.5-0.7c0.6-0.2,1.2-0.3,1.9-0.3c1.4,0,2.5,0.4,3.3,1.1c0.4-0.4,0.9-0.8,1.6-0.9c0.7-0.1,1.5-0.3,2.5-0.3
		c1.5,0,2.5,0.6,3.2,1.7c0.7,1.2,1,3,1,5.6L123.5,170.3z M136.1,159.4c1.1,1.1,1.6,2.7,1.6,4.7c0,0.3,0,0.6,0,0.8l-8.3,0.1
		c0.2,0.5,0.5,0.9,0.8,1.3c0.3,0.4,0.7,0.5,1.2,0.6c1.3,0.1,2.2-0.3,2.7-1.1l3.4,1c-0.2,0.7-0.6,1.4-1.2,2c-0.6,0.6-1.3,1-2.1,1.4
		c-0.8,0.4-1.6,0.5-2.5,0.5c-0.2,0-0.4,0-0.5,0c-1.1-0.1-2.1-0.4-3-1.1c-0.9-0.6-1.6-1.4-2.2-2.5c-0.5-1-0.8-2.1-0.8-3.3
		c0-0.2,0-0.4,0-0.5c0.1-1,0.4-2,1-2.8c0.6-0.8,1.3-1.4,2.3-1.9c0.9-0.5,2-0.7,3.1-0.7C133.5,157.7,135.1,158.3,136.1,159.4z
		 M129.5,162.1h4c-0.1-0.5-0.2-0.8-0.6-1.1c-0.3-0.3-0.7-0.4-1-0.4C130.7,160.5,129.9,161,129.5,162.1z"/>
</g>
</svg>
