<?xml version="1.0" encoding="utf-8"?>
<!-- Generator: Adobe Illustrator 19.0.0, SVG Export Plug-In . SVG Version: 6.00 Build 0)  -->
<svg version="1.1" id="Layer_1" xmlns="http://www.w3.org/2000/svg" xmlns:xlink="http://www.w3.org/1999/xlink" x="0px" y="0px"
	 viewBox="0 0 142.3 28.1" style="enable-background:new 0 0 142.3 28.1;" xml:space="preserve">
<style type="text/css">
	.st0{fill:#BB5599;}
	.st1{fill:#FFFFFF;}
</style>
<g id="XMLID_91_">
	<path id="XMLID_22_" class="st0" d="M61.3,0.4L56.6,0c-1.3-0.1-2.5,0.3-3.4,1.2c-0.9,0.9-1.4,2.1-1.4,3.3l0,1.6
		c-1.4,0.1-2.8,0.6-4,1.4c-0.8-0.7-1.8-1.1-2.9-1.1h-3.9c-0.3,0-0.6,0-0.9,0.1c-0.7-0.2-1.4-0.2-2.1-0.2c-1.9,0-3.8,0.5-5.4,1.5
		c-0.5,0.3-0.9,0.6-1.4,1c-0.6-0.5-1.3-1-2-1.3c0,0,0,0,0,0c-1.6-0.8-3.5-1.3-5.6-1.3c-1.7,0-3.4,0.4-5,1.2c-1.7,0.8-3.1,2-4.2,3.6
		c-0.2,0.3-0.4,0.7-0.6,1V5.6c0-2.5-2-4.5-4.5-4.5H4.5C2,1.1,0,3.1,0,5.6v17.9C0,26,2,28,4.5,28h11c1.2,0,2.2-0.5,3-1.2
		c1.6,0.8,3.3,1.2,5.1,1.2c2,0,3.9-0.5,5.6-1.5c0.6-0.3,1.1-0.7,1.6-1.2c0.4,0.4,0.9,0.7,1.3,1c1.6,1.1,3.4,1.6,5.3,1.6
		c0.8,0,1.5-0.1,2.3-0.3c0.4,0.1,0.8,0.2,1.2,0.2h4.3c1,0,1.9-0.3,2.7-0.9c1.3,0.7,2.7,1.1,4.2,1.1c0.9,0,1.8-0.1,2.7-0.3
		c0.4,0.1,0.9,0.2,1.4,0.2h4.6c2.5,0,4.5-2,4.5-4.5V4.9C65.4,2.5,63.6,0.6,61.3,0.4z M139.4,9.4c-1.3-1.4-3.8-3.1-7.8-3.1
		c-1.8,0-3.5,0.4-5.1,1.1c-0.6,0.3-1.1,0.6-1.6,1c-1.5-1.4-3.4-2.2-5.7-2.2c-1.5,0-2.7,0.2-3.8,0.5c-0.1,0-0.3,0.1-0.4,0.1
		c-0.9-0.3-1.9-0.5-3.2-0.5c-0.8,0-1.5,0.1-2.2,0.2c-0.4-0.1-0.9-0.2-1.4-0.2l-4,0.1c-0.4,0-0.7,0.1-1,0.2c-0.5-0.2-1-0.3-1.5-0.3
		h-3.9c-0.3,0-0.6,0-0.9,0.1c-0.7-0.2-1.4-0.2-2.1-0.2c-1.9,0-3.8,0.5-5.4,1.5c-0.1,0-0.1,0.1-0.2,0.1C89.4,6.5,88.9,5,87.8,4
		c-1.1-1-2.5-1.8-4.2-2.3c-2.3-0.7-4.8-0.9-7.2-0.4c0,0-0.1,0-0.1,0c-2.1,0.5-3.9,1.4-5.5,2.7c-1.6,1.3-2.8,2.9-3.7,4.8
		c-0.9,1.8-1.3,3.8-1.3,5.8c0,0.9,0.1,1.8,0.3,2.7c0.4,2.1,1.3,3.9,2.7,5.6c1.3,1.6,2.9,2.9,4.7,3.8c1.9,0.9,3.9,1.4,5.9,1.4
		c0.9,0,1.7-0.1,2.6-0.3c1.9-0.4,3.6-1.2,5.1-2.4c0.1-0.1,0.2-0.2,0.3-0.3c0.5,0.5,1.1,1.1,1.8,1.5c1.6,1.1,3.4,1.6,5.3,1.6
		c0.8,0,1.6-0.1,2.3-0.3c0.4,0.1,0.8,0.2,1.2,0.2h4.3c0.4,0,0.7-0.1,1.1-0.1c0.4,0.1,0.7,0.2,1.1,0.2h4.4c0.5,0,1-0.1,1.5-0.3
		c0.5,0.2,0.9,0.2,1.4,0.2l4.4,0c0.4,0,0.8-0.1,1.2-0.2c0.5,0.2,1,0.2,1.5,0.2h4.6c1.1,0,2.2-0.4,3-1.2c1.3,0.7,2.8,1.2,4.3,1.3
		c0.3,0,0.6,0,0.9,0c1.4,0,2.9-0.3,4.2-0.8c1.4-0.6,2.6-1.4,3.6-2.4c1.1-1.1,1.9-2.5,2.3-3.9c0.1-0.5,0.2-1,0.2-1.5
		c0.1-0.4,0.2-0.7,0.2-1.1c0-0.3,0-0.6,0-1.1C142.3,14.1,141.3,11.4,139.4,9.4z"/>
	<path id="XMLID_13_" class="st1" d="M15.5,18.8v4.7h-11V5.6h4.7v13.2H15.5z M20.3,22.6c-1-0.6-1.8-1.4-2.4-2.5
		c-0.6-1-0.9-2.1-0.9-3.3c0-1.3,0.3-2.4,1-3.3c0.7-0.9,1.5-1.7,2.5-2.1c1-0.5,2-0.7,3.1-0.7c1.3,0,2.5,0.3,3.5,0.8
		c1,0.5,1.8,1.2,2.3,2.2c0.5,0.9,0.8,2,0.8,3.3c0,1.2-0.3,2.4-0.9,3.4c-0.6,1-1.4,1.8-2.4,2.4c-1,0.6-2.1,0.9-3.3,0.9
		C22.4,23.5,21.3,23.2,20.3,22.6z M25.4,18.9c0.4-0.4,0.6-1,0.6-1.7c0-0.7-0.2-1.3-0.6-1.8c-0.4-0.5-1-0.7-1.8-0.7
		c-0.7,0-1.3,0.2-1.8,0.7c-0.5,0.5-0.7,1-0.7,1.7c0,0.7,0.2,1.3,0.7,1.8c0.5,0.5,1.1,0.7,1.9,0.7C24.4,19.5,25,19.3,25.4,18.9z
		 M41,23.4l0-1.1c-0.4,0.4-0.9,0.7-1.6,0.9c-0.6,0.2-1.3,0.3-1.9,0.3c-1,0-2-0.3-2.9-0.9c-0.9-0.6-1.6-1.3-2.1-2.3
		c-0.5-1-0.8-2-0.8-3.2c0-1.2,0.3-2.2,0.8-3.2c0.5-1,1.3-1.7,2.2-2.3s2-0.8,3.1-0.8c0.6,0,1.2,0.1,1.7,0.3s1,0.5,1.3,0.8v-1h3.9
		l0.5,12.5H41z M39.5,19.3c0.4-0.3,0.7-0.6,0.9-1c0.2-0.4,0.3-0.9,0.3-1.3c0-0.6-0.2-1.2-0.6-1.6c-0.4-0.4-0.9-0.6-1.6-0.6
		c-0.7,0-1.3,0.2-1.8,0.7c-0.5,0.5-0.8,1.1-0.8,1.7c0,0.4,0.1,0.8,0.3,1.2c0.2,0.4,0.5,0.7,0.9,0.9c0.4,0.2,0.7,0.4,1.1,0.4
		C38.7,19.7,39.1,19.5,39.5,19.3z M60.9,4.9v18.6h-4.6v-1.3c-0.5,0.4-1.1,0.8-1.8,1c-0.7,0.3-1.5,0.4-2.2,0.4
		c-0.9,0-1.8-0.3-2.6-0.9c-0.8-0.6-1.4-1.4-1.9-2.4c-0.5-1-0.7-2.1-0.7-3.2c0-1.1,0.2-2.1,0.7-3.1c0.5-1,1.1-1.8,1.9-2.4
		c0.8-0.6,1.6-0.9,2.5-1c1.6,0,3,0.3,4.1,1.1l0-7.3L60.9,4.9z M55,19.2c0.4-0.2,0.7-0.6,1-1s0.4-0.8,0.4-1.2c0-0.7-0.3-1.2-0.8-1.7
		c-0.5-0.5-1.1-0.7-1.8-0.7c-0.6,0-1.2,0.2-1.7,0.7c-0.5,0.5-0.7,1.1-0.7,1.8c0,0.4,0.1,0.8,0.3,1.2s0.5,0.7,0.9,1
		c0.4,0.2,0.8,0.4,1.2,0.4C54.2,19.6,54.6,19.5,55,19.2z M87.3,15.6c0,1.1-0.3,2.3-0.8,3.4c-0.5,1.1-1.3,2-2.2,2.8
		c-1,0.8-2,1.3-3.2,1.5c-0.6,0.1-1.2,0.2-1.7,0.2c-1.4,0-2.7-0.3-3.9-0.9C74.1,22,73,21.1,72.1,20c-0.9-1.1-1.5-2.3-1.8-3.7
		c-0.1-0.5-0.2-1.1-0.2-1.7c0-1.3,0.3-2.6,0.9-3.9c0.6-1.3,1.4-2.3,2.5-3.2c1.1-0.9,2.3-1.5,3.6-1.8c0.7-0.1,1.3-0.2,2-0.2
		c1.1,0,2.1,0.2,3.1,0.5c1,0.3,1.8,0.7,2.5,1.3l-2.5,3.9c-0.3-0.3-0.8-0.6-1.4-0.8c-0.6-0.2-1.1-0.3-1.7-0.3c-0.3,0-0.7,0-1.1,0.1
		c-0.9,0.2-1.6,0.7-2.1,1.4c-0.6,0.8-0.8,1.6-0.8,2.5c0,0.3,0,0.5,0.1,0.8c0.2,1,0.7,1.8,1.4,2.4c0.7,0.6,1.5,1,2.4,1
		c0.2,0,0.4,0,0.7-0.1c0.5-0.1,1-0.3,1.5-0.6s0.8-0.7,0.9-1.1L78,15.8l1-4.2l7.8,1.6C87.1,13.9,87.3,14.7,87.3,15.6z M98,23.4l0-1.1
		c-0.4,0.4-0.9,0.7-1.6,0.9c-0.6,0.2-1.3,0.3-1.9,0.3c-1,0-2-0.3-2.9-0.9c-0.9-0.6-1.6-1.3-2.1-2.3c-0.5-1-0.8-2-0.8-3.2
		c0-1.2,0.3-2.2,0.8-3.2c0.5-1,1.3-1.7,2.2-2.3c0.9-0.6,2-0.8,3.1-0.8c0.6,0,1.2,0.1,1.7,0.3c0.5,0.2,1,0.5,1.3,0.8v-1h3.9l0.5,12.5
		H98z M96.4,19.3c0.4-0.3,0.7-0.6,0.9-1c0.2-0.4,0.3-0.9,0.3-1.3c0-0.6-0.2-1.2-0.6-1.6c-0.4-0.4-0.9-0.6-1.6-0.6
		c-0.7,0-1.3,0.2-1.8,0.7c-0.5,0.5-0.8,1.1-0.8,1.7c0,0.4,0.1,0.8,0.3,1.2c0.2,0.4,0.5,0.7,0.9,0.9c0.4,0.2,0.7,0.4,1.1,0.4
		C95.7,19.7,96.1,19.5,96.4,19.3z M123.5,23.4h-4.6l0-6.5c0-0.9-0.1-1.5-0.3-1.8c-0.2-0.3-0.6-0.5-1.1-0.5c-0.4,0-0.7,0.2-1,0.7
		c-0.2,0.5-0.4,1.1-0.4,1.8l0,0.4l0-0.1v5.8l-4.4,0l0-6.5c0-0.7-0.1-1.3-0.4-1.7s-0.6-0.6-1.1-0.6c-0.5,0-0.9,0.2-1.2,0.6
		c-0.3,0.4-0.4,1-0.4,1.8l0,0.5l0,0l0.2,5.9h-4.4V11.1l4-0.1l0,0.9c0.4-0.3,0.9-0.6,1.5-0.7c0.6-0.2,1.2-0.3,1.9-0.3
		c1.4,0,2.5,0.4,3.3,1.1c0.4-0.4,0.9-0.8,1.6-0.9s1.5-0.3,2.5-0.3c1.5,0,2.5,0.6,3.2,1.7c0.7,1.2,1,3,1,5.6L123.5,23.4z M136.1,12.5
		c1.1,1.1,1.6,2.7,1.6,4.7c0,0.3,0,0.6,0,0.8l-8.3,0.1c0.2,0.5,0.5,0.9,0.8,1.3s0.7,0.5,1.2,0.6c1.3,0.1,2.2-0.3,2.7-1.1l3.4,1
		c-0.2,0.7-0.6,1.4-1.2,2c-0.6,0.6-1.3,1-2.1,1.4s-1.6,0.5-2.5,0.5c-0.2,0-0.4,0-0.5,0c-1.1-0.1-2.1-0.4-3-1.1
		c-0.9-0.6-1.6-1.4-2.2-2.5c-0.5-1-0.8-2.1-0.8-3.3c0-0.2,0-0.4,0-0.5c0.1-1,0.4-2,1-2.8c0.6-0.8,1.3-1.4,2.3-1.9
		c0.9-0.5,2-0.7,3.1-0.7C133.5,10.8,135.1,11.4,136.1,12.5z M129.5,15.2l4,0c-0.1-0.5-0.2-0.8-0.6-1.1c-0.3-0.3-0.7-0.4-1-0.4
		C130.7,13.6,129.9,14.1,129.5,15.2z"/>
</g>
</svg>
