<?xml version="1.0" encoding="utf-8"?>
<!-- Generator: Adobe Illustrator 19.0.0, SVG Export Plug-In . SVG Version: 6.00 Build 0)  -->
<svg version="1.1" id="Layer_1" xmlns="http://www.w3.org/2000/svg" xmlns:xlink="http://www.w3.org/1999/xlink" x="0px" y="0px"
	 viewBox="-1 147.6 137.7 27.4" style="enable-background:new -1 147.6 137.7 27.4;" xml:space="preserve">
<style type="text/css">
	.st0{fill:#FFBDE1;}
	.st1{fill:#FFFFFF;}
</style>
<g id="XMLID_13_">
	<path id="XMLID_93_" class="st0" d="M58.9,155c0.9,1.1,1.2,2.5,0.8,3.9l-3.2,12.6c-0.5,2-2.3,3.4-4.4,3.4h-4.4
		c-0.7,0-1.4-0.2-2.1-0.5c-0.6,0.3-1.3,0.5-2.1,0.5h-5.1c-1.4,0-2.7-0.7-3.6-1.8c-0.6,0.4-1.3,0.8-2,1.1c-1.3,0.5-2.8,0.8-4.2,0.8
		c-0.3,0-0.6,0-0.9,0c-1.6-0.1-3.1-0.6-4.5-1.5c-0.8,0.8-1.9,1.3-3.2,1.3h-4.6c-1.4,0-2.8-0.7-3.6-1.8v-0.1c-0.8,1.1-2,1.8-3.5,1.9
		L3.7,175c-0.1,0-0.1,0-0.2,0c-1.2,0-2.3-0.4-3.1-1.2c-0.9-0.8-1.4-2-1.4-3.2l0-18.5c0-1.2,0.5-2.4,1.4-3.3c0.9-0.9,2.1-1.2,3.3-1.2
		l4.6,0.2c1.3,0.1,2.6,0.7,3.4,1.8l0.3,0.3c0.8-1.2,2.1-2,3.6-2.1l4.6-0.2c1.2,0,2.4,0.4,3.3,1.3c0.9,0.9,1.4,2,1.4,3.3v1.6
		c1.2-0.4,2.5-0.6,3.8-0.6c2,0,3.6,0.4,4.8,1c0.7-0.5,1.6-0.8,2.5-0.9l4.8-0.1c0.7,0,1.3,0.1,1.9,0.4c0.3-0.2,0.8-0.3,1.3-0.3h3.9
		c0.5,0,0.9,0.1,1.3,0.2c0.4-0.1,0.9-0.2,1.4-0.2h4.7C56.7,153.2,58,153.9,58.9,155z M136.7,164.1c0,0.5,0,0.9,0,1.1
		c0,0.4-0.1,0.8-0.2,1.1c0,0.5,0,1-0.2,1.5c-0.4,1.5-1.2,2.8-2.3,3.9c-1,1-2.2,1.8-3.6,2.4c-1.3,0.5-2.8,0.8-4.2,0.8
		c-0.3,0-0.6,0-0.9,0c-1.5-0.1-2.9-0.6-4.3-1.3c-0.8,0.8-1.9,1.2-3,1.2h-4.6c-0.5,0-1-0.1-1.5-0.2c-0.4,0.1-0.8,0.2-1.2,0.2h-4.4
		c-0.5,0-1-0.1-1.4-0.2c-0.5,0.2-1,0.3-1.5,0.3H99c-0.4,0-0.8-0.1-1.1-0.2c-0.3,0.1-0.7,0.1-1.1,0.1h-4.3c-0.4,0-0.8-0.1-1.2-0.2
		c-0.8,0.2-1.5,0.3-2.3,0.3c-1.9,0-3.7-0.5-5.3-1.6c-0.7-0.4-1.2-0.9-1.8-1.5c-0.1,0.1-0.2,0.2-0.3,0.3c-1.5,1.2-3.2,2.1-5.1,2.4
		c-0.9,0.2-1.8,0.3-2.6,0.3c-2,0-4-0.5-5.9-1.4c-1.8-0.9-3.4-2.2-4.7-3.8c-1.3-1.6-2.2-3.5-2.7-5.6c-0.2-0.9-0.3-1.8-0.3-2.7
		c0-2,0.4-4,1.3-5.8c0.9-1.9,2.1-3.5,3.7-4.8c1.4-1.1,3.3-2.1,5.3-2.5h0.1c2.5-0.5,5-0.3,7.3,0.4c1.6,0.5,3.1,1.3,4.2,2.3
		s1.6,2.5,1.4,3.9c0.1,0,0.1-0.1,0.2-0.1c1.6-1,3.4-1.5,5.4-1.5c0.7,0,1.4,0.1,2.1,0.2c0.3-0.1,0.6-0.1,0.9-0.1h3.9
		c0.5,0,1.1,0.1,1.5,0.3c0.3-0.1,0.7-0.2,1-0.2l4-0.1c0.5,0,0.9,0,1.4,0.2c0.7-0.1,1.5-0.2,2.2-0.2c1.2,0,2.3,0.2,3.2,0.5
		c0.1,0,0.2-0.1,0.4-0.1c1.1-0.3,2.3-0.5,3.8-0.5c2.3,0,4.2,0.8,5.7,2.2c0.5-0.4,1-0.7,1.6-1c1.6-0.8,3.3-1.1,5.1-1.1
		c4,0,6.5,1.7,7.8,3.1C135.7,158.3,136.7,160.9,136.7,164.1z"/>
	<path id="XMLID_325_" class="st1" d="M20.2,152.2l-0.1,18.1h-4.6l-7.4-10l0.1,10l-4.6,0.2l-0.1-18.4l4.6,0.2l7.5,9.9l0.1-9.8
		L20.2,152.2z M33.1,159.4c1.1,1.1,1.6,2.7,1.6,4.7c0,0.3,0,0.6,0,0.8l-8.3,0.1c0.2,0.5,0.5,0.9,0.8,1.3c0.3,0.4,0.7,0.5,1.2,0.6
		c1.3,0.1,2.2-0.3,2.7-1.1l3.4,1c-0.2,0.7-0.6,1.4-1.2,2c-0.6,0.6-1.3,1-2.1,1.4c-0.8,0.3-1.6,0.5-2.5,0.5c-0.2,0-0.4,0-0.5,0
		c-1.1-0.1-2.1-0.4-3-1.1c-0.9-0.6-1.6-1.4-2.2-2.5s-0.8-2.1-0.8-3.3c0-0.2,0-0.4,0-0.5c0.1-1,0.4-2,1-2.8c0.6-0.8,1.3-1.4,2.3-1.9
		c0.9-0.5,2-0.7,3.1-0.7C30.5,157.7,32,158.3,33.1,159.4z M26.4,162.1h4c-0.1-0.5-0.2-0.8-0.6-1.1c-0.3-0.3-0.7-0.4-1-0.4
		C27.6,160.5,26.8,161,26.4,162.1z M55.3,157.7l-3.2,12.6h-4.4l-1.9-6.5l-2.2,6.5h-5.1L36,157.8l4.8-0.1L42,163l2.1-5.1H48l1.8,5.2
		l0.9-5.3L55.3,157.7L55.3,157.7z M81.7,162.5c0,1.1-0.3,2.3-0.8,3.4c-0.5,1.1-1.3,2-2.2,2.8c-0.9,0.8-2,1.3-3.2,1.5
		c-0.6,0.1-1.2,0.2-1.7,0.2c-1.4,0-2.7-0.3-3.9-0.9c-1.3-0.6-2.3-1.5-3.2-2.6c-0.9-1.1-1.5-2.3-1.8-3.7c-0.1-0.5-0.2-1.1-0.2-1.7
		c0-1.3,0.3-2.6,0.9-3.9s1.4-2.3,2.5-3.2c0.9-0.9,2.1-1.5,3.5-1.8c0.7-0.1,1.3-0.2,1.9-0.2c1.1,0,2.1,0.2,3.1,0.5s1.8,0.7,2.5,1.3
		l-2.5,3.9c-0.3-0.3-0.8-0.6-1.4-0.8s-1.1-0.3-1.7-0.3c-0.3,0-0.7,0-1.1,0.1c-0.9,0.2-1.6,0.7-2.1,1.4c-0.6,0.8-0.8,1.6-0.8,2.5
		c0,0.3,0,0.5,0.1,0.8c0.2,1,0.7,1.8,1.4,2.4c0.7,0.6,1.5,1,2.4,1c0.2,0,0.4,0,0.7-0.1c0.5-0.1,1-0.3,1.5-0.6
		c0.5-0.3,0.8-0.7,0.9-1.1l-4.2-0.8l1-4.2l7.8,1.6C81.5,160.8,81.7,161.6,81.7,162.5z M92.4,170.3v-1.1c-0.4,0.4-0.9,0.7-1.6,0.9
		c-0.6,0.2-1.3,0.3-1.9,0.3c-1,0-2-0.3-2.9-0.9c-0.9-0.6-1.6-1.3-2.1-2.3s-0.8-2-0.8-3.2c0-1.2,0.3-2.2,0.8-3.2s1.3-1.7,2.2-2.3
		c0.9-0.6,2-0.8,3.1-0.8c0.6,0,1.2,0.1,1.7,0.3c0.5,0.2,1,0.5,1.3,0.8v-1h3.9l0.5,12.5H92.4z M90.8,166.2c0.4-0.3,0.7-0.6,0.9-1
		c0.2-0.4,0.3-0.9,0.3-1.3c0-0.6-0.2-1.2-0.6-1.6c-0.4-0.5-0.9-0.7-1.5-0.7c-0.7,0-1.3,0.2-1.8,0.7s-0.8,1.1-0.8,1.7
		c0,0.4,0.1,0.8,0.3,1.2c0.2,0.4,0.5,0.7,0.9,0.9s0.7,0.4,1.1,0.4C90.1,166.5,90.4,166.4,90.8,166.2z M117.9,170.3h-4.6v-6.5
		c0-0.9-0.1-1.5-0.3-1.8c-0.2-0.3-0.6-0.5-1.1-0.5c-0.4,0-0.7,0.2-1,0.7c-0.2,0.5-0.4,1.1-0.4,1.8v0.4v-0.1v5.8h-4.4v-6.5
		c0-0.7-0.1-1.3-0.4-1.7c-0.3-0.4-0.6-0.6-1.1-0.6s-0.9,0.2-1.2,0.6c-0.3,0.4-0.4,1-0.4,1.8v0.5l0,0l0.2,5.9h-4.4V158l4-0.1v0.9
		c0.4-0.3,0.9-0.6,1.5-0.7c0.6-0.2,1.2-0.3,1.9-0.3c1.4,0,2.5,0.4,3.3,1.1c0.4-0.4,0.9-0.8,1.6-0.9c0.7-0.1,1.5-0.3,2.5-0.3
		c1.5,0,2.5,0.6,3.2,1.7c0.7,1.2,1,3,1,5.6L117.9,170.3z M130.5,159.4c1.1,1.1,1.6,2.7,1.6,4.7c0,0.3,0,0.6,0,0.8l-8.3,0.1
		c0.2,0.5,0.5,0.9,0.8,1.3c0.3,0.4,0.7,0.5,1.2,0.6c1.3,0.1,2.2-0.3,2.7-1.1l3.4,1c-0.2,0.7-0.6,1.4-1.2,2c-0.6,0.6-1.3,1-2.1,1.4
		c-0.8,0.4-1.6,0.5-2.5,0.5c-0.2,0-0.4,0-0.5,0c-1.1-0.1-2.1-0.4-3-1.1c-0.9-0.6-1.6-1.4-2.2-2.5c-0.5-1-0.8-2.1-0.8-3.3
		c0-0.2,0-0.4,0-0.5c0.1-1,0.4-2,1-2.8c0.6-0.8,1.3-1.4,2.3-1.9c0.9-0.5,2-0.7,3.1-0.7C127.9,157.7,129.5,158.3,130.5,159.4z
		 M123.8,162.1h4c-0.1-0.5-0.2-0.8-0.6-1.1c-0.3-0.3-0.7-0.4-1-0.4C125.1,160.5,124.3,161,123.8,162.1z"/>
</g>
</svg>
