<?xml version="1.0" encoding="utf-8"?>
<!-- Generator: Adobe Illustrator 19.0.0, SVG Export Plug-In . SVG Version: 6.00 Build 0)  -->
<svg version="1.1" id="Layer_1" xmlns="http://www.w3.org/2000/svg" xmlns:xlink="http://www.w3.org/1999/xlink" x="0px" y="0px"
	 viewBox="0 0 137.7 27.4" style="enable-background:new 0 0 137.7 27.4;" xml:space="preserve">
<style type="text/css">
	.st0{fill:#BB5599;}
	.st1{fill:#FFFFFF;}
</style>
<g id="XMLID_13_">
	<path id="XMLID_93_" class="st0" d="M59.9,7.4c0.9,1.1,1.2,2.5,0.8,3.9l-3.2,12.6c-0.5,2-2.3,3.4-4.4,3.4h-4.4
		c-0.7,0-1.4-0.2-2.1-0.5c-0.6,0.3-1.3,0.5-2.1,0.5h-5.1c-1.4,0-2.7-0.7-3.6-1.8c-0.6,0.4-1.3,0.8-2,1.1c-1.3,0.5-2.8,0.8-4.2,0.8
		c-0.3,0-0.6,0-0.9,0c-1.6-0.1-3.1-0.6-4.5-1.5c-0.8,0.8-1.9,1.3-3.2,1.3h-4.6c-1.4,0-2.8-0.7-3.6-1.8l0-0.1c-0.8,1.1-2,1.8-3.5,1.9
		l-4.6,0.2c-0.1,0-0.1,0-0.2,0c-1.2,0-2.3-0.4-3.1-1.2c-0.9-0.8-1.4-2-1.4-3.2L0,4.5c0-1.2,0.5-2.4,1.4-3.3S3.5,0,4.7,0l4.6,0.2
		c1.3,0.1,2.6,0.7,3.4,1.8l0.3,0.3c0.8-1.2,2.1-2,3.6-2.1l4.6-0.2c1.2,0,2.4,0.4,3.3,1.3s1.4,2,1.4,3.3l0,1.6
		c1.2-0.4,2.5-0.6,3.8-0.6c2,0,3.6,0.4,4.8,1c0.7-0.5,1.6-0.8,2.5-0.9l4.8-0.1c0.7,0,1.3,0.1,1.9,0.4C44,5.8,44.5,5.7,45,5.7l3.9,0
		c0.5,0,0.9,0.1,1.3,0.2c0.4-0.1,0.9-0.2,1.4-0.2h4.7C57.7,5.6,59,6.3,59.9,7.4z M137.7,16.5c0,0.5,0,0.9,0,1.1
		c0,0.4-0.1,0.8-0.2,1.1c0,0.5,0,1-0.2,1.5c-0.4,1.5-1.2,2.8-2.3,3.9c-1,1-2.2,1.8-3.6,2.4c-1.3,0.5-2.8,0.8-4.2,0.8
		c-0.3,0-0.6,0-0.9,0c-1.5-0.1-2.9-0.6-4.3-1.3c-0.8,0.8-1.9,1.2-3,1.2h-4.6c-0.5,0-1-0.1-1.5-0.2c-0.4,0.1-0.8,0.2-1.2,0.2l-4.4,0
		c-0.5,0-1-0.1-1.4-0.2c-0.5,0.2-1,0.3-1.5,0.3h-4.4c-0.4,0-0.8-0.1-1.1-0.2c-0.3,0.1-0.7,0.1-1.1,0.1h-4.3c-0.4,0-0.8-0.1-1.2-0.2
		c-0.8,0.2-1.5,0.3-2.3,0.3c-1.9,0-3.7-0.5-5.3-1.6c-0.7-0.4-1.2-0.9-1.8-1.5c-0.1,0.1-0.2,0.2-0.3,0.3c-1.5,1.2-3.2,2.1-5.1,2.4
		c-0.9,0.2-1.8,0.3-2.6,0.3c-2,0-4-0.5-5.9-1.4c-1.8-0.9-3.4-2.2-4.7-3.8c-1.3-1.6-2.2-3.5-2.7-5.6c-0.2-0.9-0.3-1.8-0.3-2.7
		c0-2,0.4-4,1.3-5.8c0.9-1.9,2.1-3.5,3.7-4.8C67.7,2,69.6,1,71.6,0.6c0,0,0.1,0,0.1,0C74.2,0.1,76.7,0.3,79,1
		c1.6,0.5,3.1,1.3,4.2,2.3c1.1,1,1.6,2.5,1.4,3.9c0.1,0,0.1-0.1,0.2-0.1c1.6-1,3.4-1.5,5.4-1.5c0.7,0,1.4,0.1,2.1,0.2
		c0.3-0.1,0.6-0.1,0.9-0.1h3.9c0.5,0,1.1,0.1,1.5,0.3c0.3-0.1,0.7-0.2,1-0.2l4-0.1c0.5,0,0.9,0,1.4,0.2c0.7-0.1,1.5-0.2,2.2-0.2
		c1.2,0,2.3,0.2,3.2,0.5c0.1,0,0.2-0.1,0.4-0.1c1.1-0.3,2.3-0.5,3.8-0.5c2.3,0,4.2,0.8,5.7,2.2c0.5-0.4,1-0.7,1.6-1
		c1.6-0.8,3.3-1.1,5.1-1.1c4,0,6.5,1.7,7.8,3.1C136.7,10.7,137.7,13.3,137.7,16.5z"/>
	<path id="XMLID_325_" class="st1" d="M21.2,4.6l-0.1,18.1h-4.6l-7.4-10l0.1,10l-4.6,0.2L4.5,4.5l4.6,0.2l7.5,9.9l0.1-9.8L21.2,4.6z
		 M34.1,11.8c1.1,1.1,1.6,2.7,1.6,4.7c0,0.3,0,0.6,0,0.8l-8.3,0.1c0.2,0.5,0.5,0.9,0.8,1.3s0.7,0.5,1.2,0.6c1.3,0.1,2.2-0.3,2.7-1.1
		l3.4,1c-0.2,0.7-0.6,1.4-1.2,2s-1.3,1-2.1,1.4c-0.8,0.3-1.6,0.5-2.5,0.5c-0.2,0-0.4,0-0.5,0c-1.1-0.1-2.1-0.4-3-1.1
		c-0.9-0.6-1.6-1.4-2.2-2.5s-0.8-2.1-0.8-3.3c0-0.2,0-0.4,0-0.5c0.1-1,0.4-2,1-2.8c0.6-0.8,1.3-1.4,2.3-1.9c0.9-0.5,2-0.7,3.1-0.7
		C31.5,10.1,33,10.7,34.1,11.8z M27.4,14.5l4,0c-0.1-0.5-0.2-0.8-0.6-1.1c-0.3-0.3-0.7-0.4-1-0.4C28.6,12.9,27.8,13.4,27.4,14.5z
		 M56.3,10.1l-3.2,12.6h-4.4l-1.9-6.5l-2.2,6.5h-5.1L37,10.2l4.8-0.1l1.2,5.3l2.1-5.1l3.9,0l1.8,5.2l0.9-5.3H56.3z M82.7,14.9
		c0,1.1-0.3,2.3-0.8,3.4s-1.3,2-2.2,2.8s-2,1.3-3.2,1.5c-0.6,0.1-1.2,0.2-1.7,0.2c-1.4,0-2.7-0.3-3.9-0.9c-1.3-0.6-2.3-1.5-3.2-2.6
		c-0.9-1.1-1.5-2.3-1.8-3.7c-0.1-0.5-0.2-1.1-0.2-1.7c0-1.3,0.3-2.6,0.9-3.9c0.6-1.3,1.4-2.3,2.5-3.2C70,5.9,71.2,5.3,72.6,5
		c0.7-0.1,1.3-0.2,1.9-0.2c1.1,0,2.1,0.2,3.1,0.5c1,0.3,1.8,0.7,2.5,1.3l-2.5,3.9c-0.3-0.3-0.8-0.6-1.4-0.8
		c-0.6-0.2-1.1-0.3-1.7-0.3c-0.3,0-0.7,0-1.1,0.1c-0.9,0.2-1.6,0.7-2.1,1.4c-0.6,0.8-0.8,1.6-0.8,2.5c0,0.3,0,0.5,0.1,0.8
		c0.2,1,0.7,1.8,1.4,2.4c0.7,0.6,1.5,1,2.4,1c0.2,0,0.4,0,0.7-0.1c0.5-0.1,1-0.3,1.5-0.6c0.5-0.3,0.8-0.7,0.9-1.1l-4.2-0.8l1-4.2
		l7.8,1.6C82.5,13.2,82.7,14,82.7,14.9z M93.4,22.7l0-1.1c-0.4,0.4-0.9,0.7-1.6,0.9c-0.6,0.2-1.3,0.3-1.9,0.3c-1,0-2-0.3-2.9-0.9
		c-0.9-0.6-1.6-1.3-2.1-2.3c-0.5-1-0.8-2-0.8-3.2c0-1.2,0.3-2.2,0.8-3.2c0.5-1,1.3-1.7,2.2-2.3c0.9-0.6,2-0.8,3.1-0.8
		c0.6,0,1.2,0.1,1.7,0.3c0.5,0.2,1,0.5,1.3,0.8v-1h3.9l0.5,12.5H93.4z M91.8,18.6c0.4-0.3,0.7-0.6,0.9-1c0.2-0.4,0.3-0.9,0.3-1.3
		c0-0.6-0.2-1.2-0.6-1.6C92,14.2,91.5,14,90.9,14c-0.7,0-1.3,0.2-1.8,0.7c-0.5,0.5-0.8,1.1-0.8,1.7c0,0.4,0.1,0.8,0.3,1.2
		c0.2,0.4,0.5,0.7,0.9,0.9c0.4,0.2,0.7,0.4,1.1,0.4C91.1,18.9,91.4,18.8,91.8,18.6z M118.9,22.7h-4.6l0-6.5c0-0.9-0.1-1.5-0.3-1.8
		c-0.2-0.3-0.6-0.5-1.1-0.5c-0.4,0-0.7,0.2-1,0.7c-0.2,0.5-0.4,1.1-0.4,1.8l0,0.4l0-0.1v5.8l-4.4,0l0-6.5c0-0.7-0.1-1.3-0.4-1.7
		s-0.6-0.6-1.1-0.6c-0.5,0-0.9,0.2-1.2,0.6c-0.3,0.4-0.4,1-0.4,1.8l0,0.5l0,0l0.2,5.9h-4.4V10.4l4-0.1l0,0.9
		c0.4-0.3,0.9-0.6,1.5-0.7c0.6-0.2,1.2-0.3,1.9-0.3c1.4,0,2.5,0.4,3.3,1.1c0.4-0.4,0.9-0.8,1.6-0.9s1.5-0.3,2.5-0.3
		c1.5,0,2.5,0.6,3.2,1.7c0.7,1.2,1,3,1,5.6L118.9,22.7z M131.5,11.8c1.1,1.1,1.6,2.7,1.6,4.7c0,0.3,0,0.6,0,0.8l-8.3,0.1
		c0.2,0.5,0.5,0.9,0.8,1.3s0.7,0.5,1.2,0.6c1.3,0.1,2.2-0.3,2.7-1.1l3.4,1c-0.2,0.7-0.6,1.4-1.2,2c-0.6,0.6-1.3,1-2.1,1.4
		s-1.6,0.5-2.5,0.5c-0.2,0-0.4,0-0.5,0c-1.1-0.1-2.1-0.4-3-1.1c-0.9-0.6-1.6-1.4-2.2-2.5c-0.5-1-0.8-2.1-0.8-3.3c0-0.2,0-0.4,0-0.5
		c0.1-1,0.4-2,1-2.8c0.6-0.8,1.3-1.4,2.3-1.9c0.9-0.5,2-0.7,3.1-0.7C128.9,10.1,130.5,10.7,131.5,11.8z M124.8,14.5l4,0
		c-0.1-0.5-0.2-0.8-0.6-1.1c-0.3-0.3-0.7-0.4-1-0.4C126.1,12.9,125.3,13.4,124.8,14.5z"/>
</g>
</svg>
