<?xml version="1.0" encoding="utf-8"?>
<!-- Generator: Adobe Illustrator 19.0.0, SVG Export Plug-In . SVG Version: 6.00 Build 0)  -->
<svg version="1.1" id="Layer_1" xmlns="http://www.w3.org/2000/svg" xmlns:xlink="http://www.w3.org/1999/xlink" x="0px" y="0px"
	 viewBox="-282 382.7 45.1 28.3" style="enable-background:new -282 382.7 45.1 28.3;" xml:space="preserve">
<style type="text/css">
	.st0{fill:#BB5599;}
	.st1{fill:#FFFFFF;}
</style>
<path id="XMLID_10_" class="st0" d="M-238,400.1l-3.5-4.2l2.1-2.1c0.9-0.9,1.3-2.1,1.3-3.3c0-1.2-0.6-2.4-1.5-3.2l-3.8-3.5
	c-1.8-1.6-4.5-1.6-6.2,0.1l-0.1,0.1c-0.8-0.6-1.8-1-2.8-1h-4.8c-1.5,0-2.8,0.7-3.6,1.9c-0.1-0.1-0.2-0.1-0.3-0.2
	c-2.1-1.2-4.4-1.9-6.9-1.9c-2.4,0-4.8,0.6-6.9,1.9s-3.8,3-5,5c-1.3,2.1-2,4.5-2,6.9s0.7,4.8,2,6.9c1.3,2.1,2.9,3.7,5,5
	c2.2,1.3,4.5,1.9,7,1.9c2.4,0,4.8-0.6,6.9-1.9c0.1,0,0.2-0.1,0.2-0.2c0.8,1.1,2.1,1.8,3.6,1.8h4.8c1.3,0,2.4-0.5,3.2-1.3l0.4,0.5
	c0.8,1,1.9,1.6,3.1,1.7c0.1,0,0.3,0,0.4,0c1.1,0,2.2-0.4,3-1.1l4-3.5C-236.6,404.8-236.4,402-238,400.1z"/>
<path id="XMLID_1_" class="st1" d="M-272.7,404.7c-1.5-0.9-2.6-2-3.5-3.5c-0.9-1.5-1.3-3-1.3-4.6s0.4-3.1,1.3-4.5
	c0.9-1.4,2-2.5,3.5-3.4c1.5-0.8,3-1.3,4.7-1.3c1.6,0,3.2,0.4,4.6,1.3c1.4,0.8,2.6,2,3.4,3.4c0.9,1.4,1.3,2.9,1.3,4.6
	c0,1.6-0.4,3.2-1.3,4.6s-2,2.6-3.4,3.4c-1.4,0.9-3,1.3-4.6,1.3C-269.7,406-271.2,405.5-272.7,404.7z M-265.8,400.6
	c0.7-0.4,1.3-0.9,1.7-1.6c0.4-0.7,0.6-1.5,0.6-2.3s-0.2-1.6-0.6-2.3c-0.4-0.7-1-1.2-1.7-1.6c-0.7-0.4-1.5-0.6-2.4-0.6
	c-0.8,0-1.6,0.2-2.3,0.6s-1.2,0.9-1.6,1.6c-0.4,0.7-0.6,1.4-0.6,2.2c0,0.9,0.2,1.6,0.6,2.3c0.4,0.7,0.9,1.2,1.6,1.6
	c0.7,0.4,1.5,0.6,2.3,0.6C-267.3,401.2-266.6,401-265.8,400.6z M-251.2,399.4l-1.3,1.3v5h-4.8v-18.1h4.8v5.6l6.1-6l3.8,3.5l-5,5
	l6.1,7.3l-4,3.5L-251.2,399.4z"/>
</svg>
