<?xml version="1.0" encoding="utf-8"?>
<!-- Generator: Adobe Illustrator 19.0.0, SVG Export Plug-In . SVG Version: 6.00 Build 0)  -->
<svg version="1.1" id="Layer_1" xmlns="http://www.w3.org/2000/svg" xmlns:xlink="http://www.w3.org/1999/xlink" x="0px" y="0px"
	 viewBox="0 0 61.8 30.3" style="enable-background:new 0 0 61.8 30.3;" xml:space="preserve">
<style type="text/css">
	.st0{fill:#BB5599;}
	.st1{fill:#FFFFFF;}
</style>
<g id="XMLID_324_">
	<path id="XMLID_143_" class="st0" d="M61.6,19.8l-1.1-3c0.5-0.9,0.7-1.9,0.6-2.9l-0.4-3.8c-0.2-1.5-1.1-2.8-2.4-3.5
		c-0.2-0.7-0.6-1.4-1.1-1.9c-0.9-1-2.2-1.5-3.5-1.4l-4.2,0.2c-0.2,0-0.4,0-0.6,0.1C48.6,3,48.2,2.4,47.7,2c-1.3-1.3-3-2-5-2
		c-1.9,0-3.6,0.6-5,1.9c-1.3,1.1-2.1,2.7-2.3,4.4h-2.1c-0.7,0-1.3,0.2-1.9,0.4c-0.6-0.3-1.3-0.5-2-0.5H25c-0.1,0-0.3,0-0.4,0
		c-1.1-1.4-2.5-2.6-4.1-3.6c-2.1-1.2-4.4-1.8-6.8-1.8c-2.4,0-4.7,0.6-6.8,1.8c-2.1,1.2-3.8,2.8-5,4.9C0.7,9.6,0,11.9,0,14.3
		c0,2.4,0.7,4.7,1.9,6.8c1.2,2,2.9,3.7,4.9,4.9c2.3,1.4,4.8,2,7.3,1.9l0.4,0.5c0.9,1.2,2.3,1.9,3.7,1.9c0.8,0,1.7-0.2,2.4-0.7
		l4.2-2.7c0.1-0.1,0.1-0.1,0.2-0.2c1.2,0.7,2.7,1.2,4.7,1.2c0.9,0,1.8-0.1,2.7-0.4c0.3,0,0.5,0.1,0.8,0.1h4.5c0.4,0,0.9-0.1,1.3-0.2
		c0.5,0.2,0.9,0.3,1.4,0.3h4.5c1,0,2-0.4,2.8-1c1.2,0.7,2.8,1.3,5,1.3c1.8,0,3.3-0.3,4.7-1c1.5-0.7,2.7-1.8,3.6-3.2
		C61.9,22.6,62,21.1,61.6,19.8z"/>
	<path id="XMLID_13_" class="st1" d="M22.2,17.6c-0.4,1.1-1,2-1.8,2.9l2,2.7l-4.2,2.7l-2-2.8c-0.8,0.3-1.7,0.4-2.5,0.4
		c-1.6,0-3.1-0.4-4.6-1.3c-1.4-0.9-2.6-2-3.4-3.4s-1.3-2.9-1.3-4.5c0-1.6,0.4-3.1,1.3-4.5c0.9-1.4,2-2.5,3.4-3.3
		c1.4-0.8,2.9-1.2,4.6-1.2c1.6,0,3.1,0.4,4.5,1.2s2.5,1.9,3.4,3.3c0.8,1.4,1.3,2.9,1.3,4.5C22.9,15.4,22.7,16.5,22.2,17.6z
		 M15.9,18.2c0.7-0.4,1.3-0.9,1.7-1.6s0.6-1.4,0.6-2.3c0-0.8-0.2-1.6-0.6-2.2c-0.4-0.7-1-1.2-1.7-1.5c-0.7-0.4-1.5-0.6-2.4-0.6
		c-0.8,0-1.6,0.2-2.2,0.6c-0.7,0.4-1.2,0.9-1.6,1.5c-0.4,0.6-0.6,1.4-0.6,2.2c0,0.8,0.2,1.6,0.6,2.3c0.4,0.7,0.9,1.2,1.6,1.6
		c0.7,0.4,1.4,0.6,2.3,0.6C14.4,18.7,15.2,18.5,15.9,18.2z M37.7,10.7v12.4h-4.5V22c-0.4,0.5-0.9,0.8-1.5,1.1
		c-0.6,0.3-1.3,0.4-2,0.4c-1.6,0-2.8-0.5-3.6-1.6c-0.8-1.1-1.2-2.6-1.2-4.7l0.1-6.5h4.3l0,6.2c0,0.7,0.2,1.2,0.5,1.5
		c0.3,0.4,0.8,0.5,1.4,0.5c0.6,0,1.1-0.3,1.5-0.8s0.6-1.2,0.6-1.9v0l0-5.5H37.7z M41.3,9.5c-0.4-0.2-0.8-0.6-1.1-1
		c-0.3-0.4-0.4-0.9-0.4-1.4c0-0.8,0.3-1.4,0.9-1.9c0.6-0.5,1.3-0.8,2.1-0.8c0.8,0,1.4,0.2,1.8,0.7C45,5.6,45.2,6.2,45.2,7
		c0,0.8-0.3,1.5-0.8,2.1c-0.5,0.5-1.1,0.8-1.9,0.8C42.1,9.9,41.7,9.7,41.3,9.5z M40,10.8h4.9v12.5h-4.5L40,10.8z M57.3,21.3
		c-0.5,0.8-1.1,1.3-1.9,1.7c-0.7,0.4-1.6,0.6-2.7,0.6c-1.4,0-2.5-0.4-3.2-1.1c-0.7-0.7-1.1-1.9-1.1-3.5c0-0.5,0-1,0.1-1.8l0.3-2.7
		h-1.9l-0.2-3.7l2.5,0L49.7,8l4.2-0.2l-0.3,2.9l2.6,0l0.4,3.8h-3.5l-0.2,2.1c0,0.3,0,0.5,0,0.6c0,0.6,0.1,1.1,0.4,1.5
		c0.2,0.4,0.5,0.5,0.9,0.5c0.4,0,0.7-0.1,1-0.3c0.3-0.2,0.6-0.5,1-0.9L57.3,21.3z"/>
</g>
</svg>
