<?xml version="1.0" encoding="utf-8"?>
<!-- Generator: Adobe Illustrator 19.0.0, SVG Export Plug-In . SVG Version: 6.00 Build 0)  -->
<svg version="1.1" id="Layer_1" xmlns="http://www.w3.org/2000/svg" xmlns:xlink="http://www.w3.org/1999/xlink" x="0px" y="0px"
	 viewBox="-15 144.5 110.8 33.5" style="enable-background:new -15 144.5 110.8 33.5;" xml:space="preserve">
<style type="text/css">
	.st0{fill:#FFBDE1;}
	.st1{fill:#FFFFFF;}
</style>
<g id="XMLID_322_">
	<path id="XMLID_106_" class="st0" d="M94.9,159.7l0.2-0.3c1.2-1.9,0.8-4.4-0.9-5.8c-1.1-1-2.4-1.7-3.8-2.3c-3-1.2-6.1-1.1-8.9,0.2
		c-0.1,0.1-0.2,0.1-0.4,0.2c-0.8-0.5-1.7-0.8-2.6-0.8h-3.8c-0.3,0-0.7,0-1,0.1c-1-0.2-2-0.3-3.1-0.3c-1.9,0-3.7,0.6-5.4,1.7
		c-0.2,0.1-0.4,0.3-0.6,0.4c-1.3-1.5-3.2-2.3-5.4-2.3c-1,0-2,0.1-3,0.4c-0.5-0.2-1-0.3-1.5-0.2h-1.8c-0.2-1.6-0.8-3.1-2-4.2
		c-1.3-1.3-3-2-5-2c-1.9,0-3.6,0.6-5,1.9c-0.6,0.5-1,1-1.4,1.7c-0.6-0.2-1.2-0.3-1.8-0.3l-4.2,0.2c-1.4,0.1-2.7,0.8-3.5,1.9
		c-0.2-0.3-0.3-0.5-0.6-0.7c-0.9-1-2.2-1.5-3.5-1.4l-4.2,0.2c-1.9,0.1-3.4,1.3-4,3c-0.4,0.2-0.9,0.4-1.2,0.7c-1.3-0.6-2.9-1-4.8-1
		c-1.3,0-2.6,0.2-3.8,0.6c-0.2-0.7-0.6-1.4-1.1-1.9c-1.3-1.3-2.9-2.3-4.6-3c-3.5-1.5-7.4-1.5-10.6,0.1c-1.8,0.8-3.2,2-4.2,3.5
		c-1.2,1.7-1.7,3.5-1.7,5.6c0,1.9,0.5,3.7,1.5,5.2l-1,1.1c-1.5,1.7-1.6,4.3-0.1,6c1.2,1.4,2.8,2.5,4.7,3.4c1.8,0.8,3.7,1.2,5.6,1.2
		c2,0,3.9-0.4,5.7-1.3c0.9-0.5,1.7-1,2.4-1.6c0.4,0.4,0.8,0.7,1.3,1.1c1.5,1.1,3.3,1.7,5.1,1.8c0.3,0,0.6,0,0.9,0
		c1.4,0,2.9-0.3,4.2-0.8c0.9-0.4,1.8-0.9,2.6-1.5c1.1,1.1,3.1,2.4,6.4,2.4c1.8,0,3.3-0.3,4.7-1c0.5-0.2,0.9-0.5,1.3-0.8
		c1.2,0.9,3,1.8,5.7,1.8c1.7,0,3.2-0.3,4.6-1c0.7,0.4,1.4,0.6,2.2,0.6H48c0.4,0,0.7-0.1,1.1-0.2c0.4,0.1,0.9,0.2,1.3,0.2h4.3
		c0.6,0,1.3-0.1,1.8-0.4c0.6,0.3,1.2,0.4,1.8,0.4H62c1,1.8,2.4,3.3,4.2,4.3c1.8,1,3.7,1.5,5.9,1.5c2.7,0,5-0.8,6.8-2.3
		c1.3-1.1,2.2-2.4,2.9-3.8c1.2,0.4,2.4,0.6,3.7,0.6c1.7,0,3.3-0.4,4.8-1.1c1.6-0.7,2.8-1.8,3.8-3.1c1.1-1.5,1.7-3.2,1.7-5
		C95.8,162,95.5,160.8,94.9,159.7z"/>
	<path id="XMLID_13_" class="st1" d="M-7.4,167.1c-1.3-0.6-2.3-1.3-3.1-2.2l3.2-3.5c0.5,0.6,1.1,1,1.8,1.3s1.4,0.5,2.1,0.5
		c0.6,0,1.1-0.1,1.5-0.4c0.4-0.2,0.6-0.5,0.6-0.8s-0.2-0.5-0.6-0.7s-0.9-0.2-1.5-0.2c-1.2,0-2.2-0.2-3.2-0.7s-1.8-1.2-2.3-2
		c-0.6-0.9-0.9-1.8-0.9-2.9s0.3-2.1,0.9-3c0.6-0.8,1.4-1.5,2.4-2s2.2-0.8,3.4-0.8s2.4,0.2,3.6,0.7s2.2,1.2,3.1,2.1L1,156.1
		c-1.5-1.1-2.9-1.6-4.2-1.6c-0.6,0-1.1,0.1-1.5,0.3s-0.6,0.4-0.6,0.7s0.3,0.5,0.8,0.7c0.5,0.1,1.1,0.2,1.8,0.2
		c1.3,0,2.4,0.2,3.4,0.6s1.8,1,2.3,1.7s0.8,1.7,0.8,2.8c0,1.2-0.3,2.3-1,3.2c-0.7,0.9-1.6,1.8-2.7,2.3c-1.1,0.6-2.3,0.8-3.6,0.8
		C-4.8,168-6.1,167.7-7.4,167.1z M16.3,156.9c1.1,1.1,1.6,2.7,1.6,4.7c0,0.3,0,0.6,0,0.8l-8.3,0.1c0.2,0.5,0.5,0.9,0.8,1.3
		c0.3,0.4,0.7,0.5,1.2,0.6c1.3,0.1,2.2-0.3,2.7-1.1l3.4,1c-0.2,0.7-0.6,1.4-1.2,2c-0.6,0.6-1.3,1-2.1,1.4c-0.8,0.3-1.6,0.5-2.5,0.5
		c-0.2,0-0.4,0-0.5,0c-1.1-0.1-2.1-0.4-3-1.1c-0.9-0.6-1.6-1.4-2.2-2.5c-0.6-1.1-0.8-2.1-0.8-3.3c0-0.2,0-0.4,0-0.5
		c0.1-1,0.4-2,1-2.8s1.3-1.4,2.3-1.9c0.9-0.5,2-0.7,3.1-0.7C13.7,155.2,15.2,155.7,16.3,156.9z M9.6,159.5h4
		c-0.1-0.5-0.2-0.8-0.6-1.1c-0.3-0.3-0.7-0.4-1-0.4C10.8,158,10,158.5,9.6,159.5z M29.6,165.8c-0.5,0.8-1.1,1.3-1.9,1.7
		c-0.7,0.4-1.6,0.6-2.7,0.6c-1.4,0-2.5-0.4-3.2-1.1s-1.1-1.9-1.1-3.5c0-0.5,0-1,0.1-1.8l0.3-2.7h-1.9l-0.2-3.7h2.5l0.5-2.8l4.2-0.2
		l-0.3,2.9h2.6l0.4,3.8h-3.5l-0.2,2.1c0,0.3,0,0.5,0,0.6c0,0.6,0.1,1.1,0.4,1.5c0.2,0.4,0.5,0.5,0.9,0.5s0.7-0.1,1-0.3
		c0.3-0.2,0.6-0.5,1-0.9L29.6,165.8z M41.4,165.8c-0.5,0.8-1.1,1.3-1.9,1.7c-0.7,0.4-1.6,0.6-2.7,0.6c-1.4,0-2.5-0.4-3.2-1.1
		s-1.1-1.9-1.1-3.5c0-0.5,0-1,0.1-1.8l0.3-2.7H31l-0.2-3.7h2.5l0.4-2.8l4.2-0.2l-0.3,2.9h2.6l0.4,3.8h-3.5l-0.2,2.1
		c0,0.3,0,0.5,0,0.6c0,0.6,0.1,1.1,0.4,1.5c0.2,0.4,0.5,0.5,0.9,0.5s0.7-0.1,1-0.3c0.3-0.2,0.6-0.5,1-0.9L41.4,165.8z M44.4,154
		c-0.4-0.2-0.8-0.6-1.1-1c-0.2-0.4-0.3-0.9-0.3-1.4c0-0.8,0.3-1.4,0.9-1.9c0.6-0.5,1.3-0.8,2.1-0.8s1.4,0.2,1.8,0.7
		c0.5,0.5,0.7,1.1,0.7,1.8c0,0.8-0.3,1.5-0.8,2.1c-0.5,0.5-1.1,0.8-1.9,0.8C45.3,154.4,44.9,154.2,44.4,154z M43.2,155.3h4.9v12.5
		h-4.5L43.2,155.3z M61.9,156.2c0.7,0.8,1,1.9,1,3.3l-0.1,8.3h-4.3v-5.5c0-1.1-0.2-2-0.5-2.4c-0.3-0.4-0.8-0.7-1.4-0.7
		c-0.5,0-0.9,0.1-1.3,0.4c-0.4,0.3-0.6,0.8-0.6,1.4v6.8h-4.3v-12.5l4.2-0.1v1.2c0.6-0.4,1.3-0.7,2.1-1c0.8-0.3,1.6-0.4,2.3-0.4
		C60.3,155,61.3,155.4,61.9,156.2z M78.6,155.3L78.5,167c0,0.8-0.2,1.6-0.5,2.6s-1,1.9-1.9,2.7s-2.2,1.2-3.9,1.2
		c-1.4,0-2.6-0.3-3.7-0.9c-1.1-0.6-1.9-1.4-2.5-2.5c-0.6-1.1-0.9-2.3-0.9-3.7l4.3,1.4c0,0.5,0.3,1,0.7,1.3c0.5,0.3,1,0.5,1.6,0.5
		c1.1,0,1.9-0.4,2.3-1.1s0.6-1.5,0.6-2.4v-0.3c-0.5,0.4-1.2,0.7-1.9,0.9c-0.7,0.2-1.4,0.4-2,0.4c-1,0-2-0.2-2.9-0.7s-1.6-1.1-2.1-2
		c-0.5-0.8-0.8-1.8-0.8-2.8c0-1.1,0.3-2.1,0.8-3.1s1.3-1.8,2.2-2.4c0.9-0.6,1.9-0.9,2.9-0.9c0.8,0,1.5,0.1,2.2,0.3s1.3,0.4,1.8,0.7
		v-0.8L78.6,155.3L78.6,155.3z M72.8,162.7c0.5-0.5,0.7-1,0.7-1.7s-0.2-1.2-0.7-1.6c-0.4-0.4-1-0.7-1.6-0.7s-1.1,0.2-1.5,0.7
		c-0.4,0.4-0.6,1-0.6,1.7c0,0.7,0.2,1.3,0.6,1.7c0.4,0.4,0.9,0.7,1.5,0.7C71.8,163.4,72.4,163.1,72.8,162.7z M89.6,159.6
		c-0.7-0.4-1.3-0.7-1.9-0.9c-0.5-0.2-1.1-0.3-1.6-0.3s-0.9,0.1-1.2,0.2c-0.3,0.1-0.5,0.3-0.5,0.5c0,0.4,0.5,0.6,1.6,0.6
		c1.6,0,2.8,0.3,3.7,0.9c0.9,0.6,1.3,1.5,1.3,2.6c0,0.8-0.3,1.6-0.8,2.3s-1.2,1.3-2.1,1.7c-0.9,0.4-1.9,0.6-2.9,0.6s-2-0.2-3-0.6
		c-0.9-0.4-1.7-0.9-2.2-1.5l2.4-2.7c0.4,0.3,0.8,0.6,1.3,0.8s1,0.3,1.5,0.3s0.9-0.1,1.2-0.2c0.3-0.2,0.5-0.4,0.5-0.6
		c0-0.2-0.1-0.3-0.3-0.4c-0.2-0.1-0.6-0.1-1.1-0.1c-0.1,0-0.2,0-0.4,0c-0.8,0-1.5-0.2-2.2-0.5c-0.7-0.3-1.3-0.8-1.7-1.4
		c-0.4-0.6-0.6-1.2-0.6-1.9s0.2-1.4,0.7-2s1.1-1.1,2-1.5c0.8-0.4,1.7-0.6,2.6-0.6s1.8,0.2,2.7,0.5c0.9,0.4,1.8,0.9,2.5,1.5
		L89.6,159.6z"/>
</g>
</svg>
