<?xml version="1.0" encoding="utf-8"?>
<!-- Generator: Adobe Illustrator 19.0.0, SVG Export Plug-In . SVG Version: 6.00 Build 0)  -->
<svg version="1.1" id="Layer_1" xmlns="http://www.w3.org/2000/svg" xmlns:xlink="http://www.w3.org/1999/xlink" x="0px" y="0px"
	 viewBox="0 0 110.8 33.5" style="enable-background:new 0 0 110.8 33.5;" xml:space="preserve">
<style type="text/css">
	.st0{fill:#BB5599;}
	.st1{fill:#FFFFFF;}
</style>
<g id="XMLID_322_">
	<path id="XMLID_106_" class="st0" d="M109.9,15.2l0.2-0.3c1.2-1.9,0.8-4.4-0.9-5.8c-1.1-1-2.4-1.7-3.8-2.3c-3-1.2-6.1-1.1-8.9,0.2
		c-0.1,0.1-0.2,0.1-0.4,0.2c-0.8-0.5-1.7-0.8-2.6-0.8h-3.8c-0.3,0-0.7,0-1,0.1c-1-0.2-2-0.3-3.1-0.3c-1.9,0-3.7,0.6-5.4,1.7
		c-0.2,0.1-0.4,0.3-0.6,0.4C78.3,6.8,76.4,6,74.2,6c-1,0-2,0.1-3,0.4c-0.5-0.2-1-0.3-1.5-0.2l-1.8,0c-0.2-1.6-0.8-3.1-2-4.2
		c-1.3-1.3-3-2-5-2c-1.9,0-3.6,0.6-5,1.9c-0.6,0.5-1,1-1.4,1.7c-0.6-0.2-1.2-0.3-1.8-0.3l-4.2,0.2c-1.4,0.1-2.7,0.8-3.5,1.9
		c-0.2-0.3-0.3-0.5-0.6-0.7c-0.9-1-2.2-1.5-3.5-1.4l-4.2,0.2c-1.9,0.1-3.4,1.3-4,3c-0.4,0.2-0.9,0.4-1.2,0.7c-1.3-0.6-2.9-1-4.8-1
		c-1.3,0-2.6,0.2-3.8,0.6c-0.2-0.7-0.6-1.4-1.1-1.9c-1.3-1.3-2.9-2.3-4.6-3C13.7,0.4,9.8,0.4,6.6,2C4.8,2.8,3.4,4,2.4,5.5
		C1.2,7.2,0.7,9,0.7,11.1c0,1.9,0.5,3.7,1.5,5.2l-1,1.1c-1.5,1.7-1.6,4.3-0.1,6c1.2,1.4,2.8,2.5,4.7,3.4c1.8,0.8,3.7,1.2,5.6,1.2
		c2,0,3.9-0.4,5.7-1.3c0.9-0.5,1.7-1,2.4-1.6c0.4,0.4,0.8,0.7,1.3,1.1c1.5,1.1,3.3,1.7,5.1,1.8c0.3,0,0.6,0,0.9,0
		c1.4,0,2.9-0.3,4.2-0.8c0.9-0.4,1.8-0.9,2.6-1.5c1.1,1.1,3.1,2.4,6.4,2.4c1.8,0,3.3-0.3,4.7-1c0.5-0.2,0.9-0.5,1.3-0.8
		c1.2,0.9,3,1.8,5.7,1.8c1.7,0,3.2-0.3,4.6-1c0.7,0.4,1.4,0.6,2.2,0.6h4.5c0.4,0,0.7-0.1,1.1-0.2c0.4,0.1,0.9,0.2,1.3,0.2h4.3
		c0.6,0,1.3-0.1,1.8-0.4c0.6,0.3,1.2,0.4,1.8,0.4H77c1,1.8,2.4,3.3,4.2,4.3c1.8,1,3.7,1.5,5.9,1.5c2.7,0,5-0.8,6.8-2.3
		c1.3-1.1,2.2-2.4,2.9-3.8c1.2,0.4,2.4,0.6,3.7,0.6c1.7,0,3.3-0.4,4.8-1.1c1.6-0.7,2.8-1.8,3.8-3.1c1.1-1.5,1.7-3.2,1.7-5
		C110.8,17.5,110.5,16.3,109.9,15.2z"/>
	<path id="XMLID_13_" class="st1" d="M7.6,22.6c-1.3-0.6-2.3-1.3-3.1-2.2l3.2-3.5c0.5,0.6,1.1,1,1.8,1.3s1.4,0.5,2.1,0.5
		c0.6,0,1.1-0.1,1.5-0.4c0.4-0.2,0.6-0.5,0.6-0.8s-0.2-0.5-0.6-0.7s-0.9-0.2-1.5-0.2c-1.2,0-2.2-0.2-3.2-0.7c-1-0.5-1.8-1.2-2.3-2
		c-0.6-0.9-0.9-1.8-0.9-2.9c0-1.1,0.3-2.1,0.9-3C6.7,7.2,7.5,6.5,8.5,6c1-0.5,2.2-0.8,3.4-0.8c1.2,0,2.4,0.2,3.6,0.7
		c1.2,0.5,2.2,1.2,3.1,2.1L16,11.6c-1.5-1.1-2.9-1.6-4.2-1.6c-0.6,0-1.1,0.1-1.5,0.3c-0.4,0.2-0.6,0.4-0.6,0.7
		c0,0.3,0.3,0.5,0.8,0.7c0.5,0.1,1.1,0.2,1.8,0.2c1.3,0,2.4,0.2,3.4,0.6c1,0.4,1.8,1,2.3,1.7s0.8,1.7,0.8,2.8c0,1.2-0.3,2.3-1,3.2
		s-1.6,1.8-2.7,2.3c-1.1,0.6-2.3,0.8-3.6,0.8C10.2,23.5,8.9,23.2,7.6,22.6z M31.3,12.4c1.1,1.1,1.6,2.7,1.6,4.7c0,0.3,0,0.6,0,0.8
		l-8.3,0.1c0.2,0.5,0.5,0.9,0.8,1.3s0.7,0.5,1.2,0.6c1.3,0.1,2.2-0.3,2.7-1.1l3.4,1c-0.2,0.7-0.6,1.4-1.2,2c-0.6,0.6-1.3,1-2.1,1.4
		c-0.8,0.3-1.6,0.5-2.5,0.5c-0.2,0-0.4,0-0.5,0c-1.1-0.1-2.1-0.4-3-1.1c-0.9-0.6-1.6-1.4-2.2-2.5s-0.8-2.1-0.8-3.3
		c0-0.2,0-0.4,0-0.5c0.1-1,0.4-2,1-2.8c0.6-0.8,1.3-1.4,2.3-1.9c0.9-0.5,2-0.7,3.1-0.7C28.7,10.7,30.2,11.2,31.3,12.4z M24.6,15l4,0
		c-0.1-0.5-0.2-0.8-0.6-1.1c-0.3-0.3-0.7-0.4-1-0.4C25.8,13.5,25,14,24.6,15z M44.6,21.3c-0.5,0.8-1.1,1.3-1.9,1.7
		c-0.7,0.4-1.6,0.6-2.7,0.6c-1.4,0-2.5-0.4-3.2-1.1c-0.7-0.7-1.1-1.9-1.1-3.5c0-0.5,0-1,0.1-1.8l0.3-2.7h-1.9l-0.2-3.7l2.5,0L37,8
		l4.2-0.2l-0.3,2.9l2.6,0l0.4,3.8h-3.5l-0.2,2.1c0,0.3,0,0.5,0,0.6c0,0.6,0.1,1.1,0.4,1.5c0.2,0.4,0.5,0.5,0.9,0.5
		c0.4,0,0.7-0.1,1-0.3c0.3-0.2,0.6-0.5,1-0.9L44.6,21.3z M56.4,21.3c-0.5,0.8-1.1,1.3-1.9,1.7c-0.7,0.4-1.6,0.6-2.7,0.6
		c-1.4,0-2.5-0.4-3.2-1.1c-0.7-0.7-1.1-1.9-1.1-3.5c0-0.5,0-1,0.1-1.8l0.3-2.7h-1.9l-0.2-3.7l2.5,0L48.7,8l4.2-0.2l-0.3,2.9l2.6,0
		l0.4,3.8h-3.5l-0.2,2.1c0,0.3,0,0.5,0,0.6c0,0.6,0.1,1.1,0.4,1.5c0.2,0.4,0.5,0.5,0.9,0.5c0.4,0,0.7-0.1,1-0.3
		c0.3-0.2,0.6-0.5,1-0.9L56.4,21.3z M59.4,9.5c-0.4-0.2-0.8-0.6-1.1-1C58.1,8.1,58,7.6,58,7.1c0-0.8,0.3-1.4,0.9-1.9
		c0.6-0.5,1.3-0.8,2.1-0.8c0.8,0,1.4,0.2,1.8,0.7c0.5,0.5,0.7,1.1,0.7,1.8c0,0.8-0.3,1.5-0.8,2.1c-0.5,0.5-1.1,0.8-1.9,0.8
		C60.3,9.9,59.9,9.7,59.4,9.5z M58.2,10.8h4.9v12.5h-4.5L58.2,10.8z M76.9,11.7c0.7,0.8,1,1.9,1,3.3l-0.1,8.3h-4.3l0-5.5
		c0-1.1-0.2-2-0.5-2.4s-0.8-0.7-1.4-0.7c-0.5,0-0.9,0.1-1.3,0.4c-0.4,0.3-0.6,0.8-0.6,1.4l0,6.8h-4.3V10.8l4.2-0.1v1.2
		c0.6-0.4,1.3-0.7,2.1-1s1.6-0.4,2.3-0.4C75.3,10.5,76.3,10.9,76.9,11.7z M93.6,10.8l-0.1,11.7c0,0.8-0.2,1.6-0.5,2.6
		c-0.3,1-1,1.9-1.9,2.7c-0.9,0.8-2.2,1.2-3.9,1.2c-1.4,0-2.6-0.3-3.7-0.9s-1.9-1.4-2.5-2.5c-0.6-1.1-0.9-2.3-0.9-3.7l4.3,1.4
		c0,0.5,0.3,1,0.7,1.3c0.5,0.3,1,0.5,1.6,0.5c1.1,0,1.9-0.4,2.3-1.1c0.4-0.7,0.6-1.5,0.6-2.4v-0.3c-0.5,0.4-1.2,0.7-1.9,0.9
		c-0.7,0.2-1.4,0.4-2,0.4c-1,0-2-0.2-2.9-0.7c-0.9-0.5-1.6-1.1-2.1-2c-0.5-0.8-0.8-1.8-0.8-2.8c0-1.1,0.3-2.1,0.8-3.1
		c0.5-1,1.3-1.8,2.2-2.4c0.9-0.6,1.9-0.9,2.9-0.9c0.8,0,1.5,0.1,2.2,0.3c0.7,0.2,1.3,0.4,1.8,0.7l0-0.8H93.6z M87.8,18.2
		c0.5-0.5,0.7-1,0.7-1.7c0-0.7-0.2-1.2-0.7-1.6c-0.4-0.4-1-0.7-1.6-0.7c-0.6,0-1.1,0.2-1.5,0.7c-0.4,0.4-0.6,1-0.6,1.7
		c0,0.7,0.2,1.3,0.6,1.7c0.4,0.4,0.9,0.7,1.5,0.7C86.8,18.9,87.4,18.6,87.8,18.2z M104.6,15.1c-0.7-0.4-1.3-0.7-1.9-0.9
		c-0.5-0.2-1.1-0.3-1.6-0.3c-0.5,0-0.9,0.1-1.2,0.2c-0.3,0.1-0.5,0.3-0.5,0.5c0,0.4,0.5,0.6,1.6,0.6c1.6,0,2.8,0.3,3.7,0.9
		c0.9,0.6,1.3,1.5,1.3,2.6c0,0.8-0.3,1.6-0.8,2.3c-0.5,0.7-1.2,1.3-2.1,1.7c-0.9,0.4-1.9,0.6-2.9,0.6c-1,0-2-0.2-3-0.6
		c-0.9-0.4-1.7-0.9-2.2-1.5l2.4-2.7c0.4,0.3,0.8,0.6,1.3,0.8c0.5,0.2,1,0.3,1.5,0.3c0.5,0,0.9-0.1,1.2-0.2c0.3-0.2,0.5-0.4,0.5-0.6
		c0-0.2-0.1-0.3-0.3-0.4c-0.2-0.1-0.6-0.1-1.1-0.1c-0.1,0-0.2,0-0.4,0c-0.8,0-1.5-0.2-2.2-0.5s-1.3-0.8-1.7-1.4
		c-0.4-0.6-0.6-1.2-0.6-1.9c0-0.7,0.2-1.4,0.7-2c0.5-0.6,1.1-1.1,2-1.5c0.8-0.4,1.7-0.6,2.6-0.6s1.8,0.2,2.7,0.5
		c0.9,0.4,1.8,0.9,2.5,1.5L104.6,15.1z"/>
</g>
</svg>
